<svg width="100" height="100" viewBox="0 0 100 100" fill="none" xmlns="http://www.w3.org/2000/svg">
<path d="M18.7272 40.3799C19.1056 41.6775 19.6308 42.9288 20.2951 44.1028L18.4028 46.4895C17.7848 47.2696 17.8544 48.3818 18.5495 49.0847L21.809 52.3441C22.5118 53.047 23.6241 53.1087 24.4042 52.4908L26.7754 50.6139C27.9957 51.3169 29.2934 51.8652 30.645 52.2514L31.0003 55.3023C31.1162 56.2909 31.9504 57.0324 32.939 57.0324H37.5501C38.5388 57.0324 39.373 56.2908 39.4888 55.3023L39.8287 52.3595C41.2807 51.981 42.671 51.4172 43.9764 50.6834L46.2703 52.4985C47.0504 53.1164 48.1627 53.0469 48.8655 52.3518L52.125 49.0923C52.8279 48.3894 52.8897 47.2772 52.2718 46.4971L50.4875 44.234C51.229 42.9518 51.8083 41.5847 52.1945 40.1558L54.9442 39.8392C55.9329 39.7233 56.6743 38.8891 56.6743 37.9005V33.2894C56.6743 32.3007 55.9328 31.4665 54.9442 31.3507L52.2331 31.034C51.8623 29.6205 51.3063 28.2689 50.5958 27.0022L52.2641 24.8935C52.882 24.1134 52.8125 23.0012 52.1174 22.2983L48.8656 19.0466C48.1628 18.3437 47.0505 18.2819 46.2704 18.8999L44.2236 20.5219C42.8951 19.7418 41.4738 19.147 39.9832 18.7454L39.6743 16.0961C39.5584 15.1075 38.7242 14.366 37.7356 14.366H33.1245C32.1358 14.366 31.3016 15.1075 31.1858 16.0961L30.8768 18.7454C29.3475 19.1547 27.8877 19.7726 26.5283 20.5837L24.4042 18.8999C23.6241 18.2819 22.5119 18.3515 21.809 19.0466L18.5496 22.3061C17.8467 23.0089 17.7849 24.1212 18.4028 24.9013L20.1793 27.1489C19.4687 28.4311 18.928 29.7982 18.5728 31.2194L15.7304 31.5438C14.7417 31.6596 14.0002 32.4938 14.0002 33.4824V38.0936C14.0002 39.0822 14.7417 39.9164 15.7304 40.0323L18.7272 40.3799ZM35.4338 27.9059C39.6356 27.9059 43.0572 31.3276 43.0572 35.5293C43.0572 39.7311 39.6356 43.1528 35.4338 43.1528C31.2321 43.1528 27.8104 39.7311 27.8104 35.5293C27.8104 31.3276 31.232 27.9059 35.4338 27.9059Z" fill="white"/>
<path d="M81.0199 41.5153L78.5869 39.4607C77.8377 38.8274 76.7331 38.8583 76.0226 39.5302L74.6787 40.7892C73.5434 40.2408 72.3384 39.8546 71.0948 39.6307L70.7165 37.7769C70.5234 36.8192 69.6352 36.1549 68.6618 36.2322L65.4873 36.5025C64.5141 36.5875 63.7495 37.383 63.7186 38.3639L63.6568 40.2486C62.4364 40.6888 61.2855 41.2913 60.2351 42.0482L58.6286 40.9823C57.8097 40.4417 56.7208 40.5961 56.0875 41.3453L54.0329 43.7938C53.3995 44.543 53.4304 45.6475 54.1023 46.3581L55.5081 47.8565C55.0214 48.9532 54.6739 50.1042 54.4731 51.2858L52.4649 51.6952C51.5072 51.8883 50.8429 52.7765 50.9202 53.7498L51.1905 56.9243C51.2755 57.8975 52.071 58.6622 53.0519 58.6931L55.2223 58.7625C55.6164 59.7975 56.1338 60.7785 56.7594 61.6976L55.5468 63.5281C55.0061 64.3468 55.1606 65.4359 55.9098 66.0692L58.3428 68.1238C59.0921 68.7571 60.1965 68.7262 60.9072 68.0543L62.4983 66.5636C63.541 67.0502 64.6377 67.4132 65.7654 67.6295L66.2057 69.8076C66.3988 70.7653 67.287 71.4296 68.2602 71.3523L71.4347 71.082C72.408 70.997 73.1726 70.2016 73.2035 69.2206L73.273 67.0887C74.4316 66.6793 75.5283 66.1232 76.5401 65.4359L78.2935 66.5945C79.1122 67.1351 80.2012 66.9807 80.8347 66.2314L82.8892 63.7984C83.5225 63.0492 83.4916 61.9447 82.8197 61.2341L81.4061 59.7358C81.9237 58.639 82.3023 57.4804 82.5184 56.2909L84.4493 55.897C85.4071 55.7039 86.0713 54.8156 85.9941 53.8423L85.7238 50.6679C85.6388 49.6946 84.8433 48.93 83.8623 48.8991L81.9236 48.8373C81.5219 47.7096 80.9813 46.6438 80.3094 45.6551L81.3674 44.064C81.9236 43.2454 81.7692 42.1486 81.0199 41.5153ZM69.0558 59.867C65.6264 60.1606 62.5985 57.6039 62.3128 54.1746C62.0192 50.7452 64.576 47.7174 68.0052 47.4316C71.4346 47.1381 74.4625 49.6948 74.7482 53.1241C75.0418 56.5536 72.485 59.5813 69.0558 59.867Z" fill="white"/>
<path d="M29.8341 68.4097C28.8609 68.5101 28.1117 69.3288 28.104 70.3098L28.0808 72.2639C28.0654 73.2448 28.7914 74.079 29.7646 74.2026L31.2012 74.3879C31.4407 75.2608 31.7805 76.095 32.2208 76.8828L31.2939 78.0259C30.676 78.7905 30.7224 79.8874 31.4098 80.5903L32.7769 81.9883C33.4643 82.6911 34.5611 82.7684 35.3412 82.1659L36.492 81.2777C37.303 81.7565 38.1604 82.1351 39.0563 82.3976L39.2108 83.8806C39.3112 84.8538 40.1299 85.603 41.1108 85.6107L43.065 85.6339C44.0459 85.6494 44.8801 84.9233 45.0037 83.9501L45.1814 82.5444C46.1546 82.3049 47.0815 81.9419 47.9619 81.463L49.0433 82.3358C49.8079 82.9537 50.9048 82.9074 51.6077 82.22L53.0057 80.8529C53.7086 80.1655 53.7858 79.0687 53.1834 78.2886L52.3568 77.2149C52.8666 76.3652 53.2606 75.4616 53.5309 74.5115L54.8131 74.3802C55.7863 74.2798 56.5354 73.4611 56.5432 72.4802L56.5663 70.5259C56.5818 69.5451 55.8558 68.7108 54.8826 68.5873L53.6312 68.4251C53.3918 67.4828 53.0366 66.5714 52.5732 65.7217L53.3533 64.764C53.9712 63.9993 53.9248 62.9025 53.2374 62.1997L51.8704 60.8017C51.1829 60.0987 50.086 60.0215 49.306 60.624L48.3713 61.3423C47.4909 60.8094 46.5485 60.4 45.5599 60.122L45.4363 58.9093C45.3358 57.936 44.5172 57.1869 43.5362 57.1792L41.5821 57.156C40.6011 57.1406 39.767 57.8666 39.6433 58.8398L39.4888 60.0448C38.4694 60.3073 37.4884 60.709 36.577 61.2342L35.6115 60.4464C34.8469 59.8284 33.75 59.8749 33.0472 60.5622L31.6414 61.9371C30.9385 62.6245 30.8613 63.7213 31.4638 64.5014L32.2902 65.5673C31.8113 66.417 31.4329 67.3206 31.1857 68.2707L29.8341 68.4097ZM42.4471 66.2006C45.2509 66.2315 47.4984 68.541 47.4676 71.3448C47.4367 74.1485 45.1272 76.3961 42.3235 76.3652C39.5197 76.3343 37.2722 74.0249 37.303 71.2211C37.334 68.4174 39.6434 66.1698 42.4471 66.2006Z" fill="white"/>
</svg>
