<svg width="100" height="100" viewBox="0 0 100 100" fill="none" xmlns="http://www.w3.org/2000/svg">
<path d="M55.3838 12.5003C55.889 12.7438 56.3453 13.0612 56.7338 13.4401C57.5122 14.2945 58.6207 14.8517 59.8371 15C61.1179 14.8529 62.2875 14.2719 63.1085 13.3754C63.4598 13.0435 63.8537 12.7499 64.2808 12.5003C64.567 12.5113 65.3148 13.1429 65.7176 13.4816C66.4668 14.3153 67.5428 14.859 68.7239 15C70.0874 14.8444 71.3336 14.2286 72.2123 13.2778C72.5527 12.9904 73.0673 12.554 73.1677 12.5003C73.9135 12.5003 74.0843 12.7231 74.542 13.3175C75.1448 14.3427 76.3225 14.9884 77.6114 15C78.3783 15 79 14.4404 79 13.7502C79 13.0599 78.3783 12.5003 77.6114 12.5003C77.3334 12.5003 77.2792 12.4826 76.8276 11.8967C76.0906 10.7043 74.683 9.9756 73.1677 10.0006C72.0442 10.1404 71.0217 10.6609 70.3098 11.4555C69.8488 11.8467 69.0751 12.5003 68.7822 12.5064C68.3524 12.2721 67.9591 11.9865 67.6133 11.6581C66.778 10.7427 65.586 10.1501 64.2808 10.0006C63.0774 10.1483 61.9803 10.7 61.2108 11.5452C60.8202 11.9212 60.3707 12.2428 59.8757 12.5003C59.4127 12.2617 58.9916 11.9627 58.6261 11.613C57.8146 10.7262 56.6592 10.1495 55.394 10.0006C54.6265 9.99818 54.0027 10.556 54 11.2462C53.9973 11.9364 54.617 12.4979 55.3838 12.5003Z" fill="white"/>
<path d="M42 76H44V82H42V76Z" fill="white"/>
<path d="M19 76H22V82H19V76Z" fill="white"/>
<path d="M31 76H33V82H31V76Z" fill="white"/>
<path d="M89 90V60.6972H65.3214C64.5516 60.6972 63.9286 60.0724 63.9286 59.3018V52.4381L52.2634 61.7874C51.8451 62.1226 51.2718 62.188 50.7889 61.9556C50.3067 61.7233 49.9993 61.2341 50 60.6972V52.4381L38.3348 61.7874C37.9166 62.1226 37.3432 62.188 36.8604 61.9556C36.3782 61.7233 36.0707 61.2341 36.0714 60.6972V52.4381L24.4063 61.7874C23.988 62.1226 23.4147 62.188 22.9318 61.9556C22.4496 61.7233 22.1422 61.2341 22.1429 60.6972V52L11 58.6975V90H52.7857V71.8602C52.7857 71.0896 53.4087 70.4648 54.1786 70.4648H65.3214C66.0906 70.4648 66.7143 71.0896 66.7143 71.8602V90H89ZM24.9286 83.0231C24.9286 83.7937 24.3049 84.4185 23.5357 84.4185H17.9643C17.1944 84.4185 16.5714 83.7937 16.5714 83.0231V74.6509C16.5714 73.8803 17.1944 73.2556 17.9643 73.2556H23.5357C24.3049 73.2556 24.9286 73.8803 24.9286 74.6509V83.0231ZM36.0714 83.0231C36.0714 83.7937 35.4478 84.4185 34.6786 84.4185H29.1071C28.3373 84.4185 27.7143 83.7937 27.7143 83.0231V74.6509C27.7143 73.8803 28.3373 73.2556 29.1071 73.2556H34.6786C35.4478 73.2556 36.0714 73.8803 36.0714 74.6509V83.0231ZM47.2143 83.0231C47.2143 83.7937 46.5906 84.4185 45.8214 84.4185H40.25C39.4801 84.4185 38.8571 83.7937 38.8571 83.0231V74.6509C38.8571 73.8803 39.4801 73.2556 40.25 73.2556H45.8214C46.5906 73.2556 47.2143 73.8803 47.2143 74.6509V83.0231Z" fill="white"/>
<path d="M56 74H64V90H56V74Z" fill="white"/>
<path d="M74.6077 21L72 58H83L80.3923 21H74.6077Z" fill="white"/>
</svg>
