<svg width="100" height="100" viewBox="0 0 100 100" fill="none" xmlns="http://www.w3.org/2000/svg">
<path d="M49.9989 12.9995C35.9711 12.9995 24.561 24.4095 24.561 38.4374C24.561 52.4652 35.9711 63.8752 49.9989 63.8752C64.0221 63.8752 75.4368 52.4652 75.4368 38.4374C75.4368 24.4095 64.0221 12.9995 49.9989 12.9995ZM63.37 34.8391L58.9761 40.3429L59.4572 47.5349C59.5127 48.335 59.1473 49.1074 58.4859 49.5745C58.0835 49.8567 57.6164 50 57.1446 50C56.8394 50 56.5295 49.9399 56.2427 49.815L49.9989 47.1649L43.7597 49.815C43.0197 50.1295 42.1687 50.0417 41.5165 49.5745C40.8598 49.1074 40.4944 48.335 40.5453 47.5349L41.0263 40.3429L36.6325 34.8391C36.1422 34.2286 35.9988 33.4099 36.244 32.6653C36.4891 31.9207 37.095 31.3564 37.8535 31.1575L44.4118 29.4416L48.0101 23.3828C48.8426 21.9768 51.1552 21.9768 51.983 23.3828L55.5813 29.4416L62.1443 31.1575C62.8982 31.3564 63.5041 31.9253 63.7538 32.6653C64.0036 33.4053 63.8556 34.2239 63.37 34.8391Z" fill="white"/>
<path d="M23.9828 53.4364L13.3082 71.969C12.841 72.783 12.9104 73.7959 13.4793 74.5359C14.0482 75.276 15.0056 75.609 15.9121 75.3592L29.4913 71.71L33.1034 85.2892C33.344 86.1911 34.1071 86.8617 35.0321 86.9866C35.1339 86.9959 35.2402 87.0005 35.3374 87.0005C36.156 87.0005 36.9238 86.5657 37.34 85.8442L47.4365 68.3707C37.4048 67.5197 28.7836 61.7245 23.9828 53.4364Z" fill="white"/>
<path d="M86.694 71.969L76.0147 53.4364C71.2185 61.7245 62.5928 67.5197 52.561 68.3707L62.6576 85.8442C63.0738 86.5657 63.8416 87.0005 64.6602 87.0005C64.7573 87.0005 64.8637 86.9959 64.9608 86.982C65.8905 86.8571 66.649 86.1865 66.8941 85.2846L70.5063 71.7054L84.0855 75.3546C84.992 75.6043 85.9448 75.2713 86.5183 74.5313C87.0918 73.7959 87.1565 72.783 86.694 71.969Z" fill="white"/>
</svg>
