<svg width="100" height="100" viewBox="0 0 100 100" fill="none" xmlns="http://www.w3.org/2000/svg">
<path d="M91.6273 51.2757L83.7523 38.1508C83.2797 37.358 82.424 36.875 81.5 36.875H65.75V29C65.75 27.551 64.574 26.375 63.125 26.375H26.375C24.926 26.375 23.75 27.551 23.75 29V31.625H10.625C9.176 31.625 8 32.801 8 34.25C8 35.699 9.176 36.875 10.625 36.875H23.75V42.125H15.875C14.426 42.125 13.25 43.301 13.25 44.75C13.25 46.199 14.426 47.375 15.875 47.375H23.75V52.625H21.125C19.676 52.625 18.5 53.801 18.5 55.25C18.5 56.699 19.676 57.875 21.125 57.875H23.75V65.75C23.75 67.199 24.926 68.375 26.375 68.375H34.733C35.8197 71.4253 38.7073 73.625 42.125 73.625C45.5428 73.625 48.4302 71.4253 49.517 68.375H63.125H65.75H71.483C72.5697 71.4253 75.4573 73.625 78.875 73.625C82.2927 73.625 85.1803 71.4253 86.267 68.375H89.375C90.824 68.375 92 67.199 92 65.75V52.625C92 52.1472 91.874 51.68 91.6273 51.2757ZM42.125 68.375C40.676 68.375 39.5 67.1937 39.5 65.75C39.5 64.3063 40.676 63.125 42.125 63.125C43.574 63.125 44.75 64.3063 44.75 65.75C44.75 67.1937 43.574 68.375 42.125 68.375ZM78.875 68.375C77.4313 68.375 76.25 67.1937 76.25 65.75C76.25 64.3063 77.4313 63.125 78.875 63.125C80.3187 63.125 81.5 64.3063 81.5 65.75C81.5 67.1937 80.3187 68.375 78.875 68.375ZM71 52.625V42.125H80.0143L86.3142 52.625H71Z" fill="white"/>
</svg>
